<?xml version="1.0" encoding="utf-8"?>
<!-- Generator: Adobe Illustrator 21.0.2, SVG Export Plug-In . SVG Version: 6.00 Build 0)  -->
<!DOCTYPE svg PUBLIC "-//W3C//DTD SVG 1.1//EN" "http://www.w3.org/Graphics/SVG/1.1/DTD/svg11.dtd">
<svg version="1.1" id="Layer_1" xmlns="http://www.w3.org/2000/svg" xmlns:xlink="http://www.w3.org/1999/xlink" x="0px" y="0px"
	 viewBox="0 0 100 114" style="enable-background:new 0 0 100 114;" xml:space="preserve">
<title>THINKO</title>
<desc>Created with Sketch.</desc>
<g id="Clip-7">
</g>
<path d="M13.6,73h1.6c0.2,0,0.3-0.1,0.4-0.2c0.1-0.1,0.2-0.3,0.2-0.4v-7.8l2.6,4.5c0.2,0.3,0.4,0.5,0.7,0.5h1c0.2,0,0.5-0.2,0.7-0.5
	l2.6-4.5v7.8c0,0.2,0.1,0.3,0.2,0.4c0.1,0.1,0.3,0.2,0.4,0.2h1.6c0.2,0,0.3-0.1,0.4-0.2c0.1-0.1,0.2-0.3,0.2-0.4V59.5
	c0-0.2-0.1-0.3-0.2-0.4c-0.1-0.1-0.3-0.2-0.4-0.2h-1.4c-0.2,0-0.4,0.1-0.5,0.2c-0.2,0.1-0.3,0.2-0.4,0.4l-3.7,6.6l-3.8-6.6
	c-0.1-0.2-0.2-0.3-0.3-0.4c-0.1-0.2-0.3-0.2-0.5-0.2h-1.4c-0.2,0-0.3,0.1-0.4,0.2c-0.1,0.1-0.2,0.3-0.2,0.4v12.9
	c0,0.2,0.1,0.3,0.2,0.4C13.3,72.9,13.5,73,13.6,73z"/>
<path d="M28.9,68c-0.6,0.5-0.9,1.2-0.9,2.1c0,0.9,0.3,1.6,1,2.2c0.7,0.6,1.6,0.9,2.7,0.9c0.8,0,1.5-0.1,2-0.4c0.6-0.2,1-0.6,1.3-1
	v0.7c0,0.2,0.1,0.3,0.2,0.4c0.1,0.1,0.3,0.2,0.4,0.2h1.5c0.2,0,0.3-0.1,0.4-0.2c0.1-0.1,0.2-0.3,0.2-0.4v-5.9c0-1.3-0.4-2.4-1.2-3.1
	s-1.8-1.1-3.3-1.1c-0.8,0-1.6,0.1-2.2,0.4s-1.1,0.7-1.4,1.1c-0.3,0.5-0.5,0.9-0.6,1.3c0,0.1,0,0.2-0.4,0.3c0.1,0.1,0.2,0.1,0.3,0.1
	h1.9c0.3,0,0.5-0.1,0.7-0.3s0.4-0.3,0.6-0.4c0.2-0.1,0.5-0.1,0.8-0.1c0.6,0,1.1,0.2,1.4,0.4s0.5,0.6,0.5,1.1l-3.3,0.6
	C30.4,67.1,29.5,67.5,28.9,68z M35.1,68.4v0.2c0,0.4-0.1,0.8-0.3,1.1c-0.2,0.3-0.6,0.6-1,0.8c-0.4,0.2-0.9,0.3-1.5,0.3
	c-0.4,0-0.7-0.1-1-0.2c-0.3-0.1-0.4-0.3-0.4-0.6s0.1-0.5,0.4-0.7s0.7-0.3,1.2-0.4L35.1,68.4z"/>
<path d="M47.6,72.8c0.1,0.1,0.3,0.2,0.4,0.2h1.5c0.2,0,0.3-0.1,0.4-0.2c0.1-0.1,0.2-0.3,0.2-0.4V59.3c0-0.2-0.1-0.3-0.2-0.4
	c-0.1-0.1-0.3-0.2-0.4-0.2H48c-0.2,0-0.3,0.1-0.4,0.2c-0.1,0.1-0.2,0.3-0.2,0.4h-0.1v4.4c-0.3-0.3-0.7-0.6-1.2-0.8
	c-0.5-0.3-1.1-0.4-1.8-0.4c-0.9,0-1.6,0.2-2.3,0.6c-0.6,0.4-1.1,1-1.5,1.7c-0.4,0.7-0.6,1.5-0.6,2.3v0.7v0.7c0,0.8,0.2,1.6,0.6,2.3
	c0.3,0.7,0.8,1.3,1.5,1.7c0.7,0.5,1.4,0.7,2.3,0.7c0.8,0,1.4-0.2,1.9-0.4s0.9-0.5,1.2-0.8v0.4C47.4,72.6,47.5,72.7,47.6,72.8z
	 M46.7,70.2c-0.5,0.4-1,0.6-1.7,0.6s-1.4-0.2-1.8-0.7c-0.4-0.5-0.7-1.3-0.6-2.4c0-0.3,0-0.5,0-0.6c0.1-0.8,0.4-1.4,0.8-1.8
	c0.5-0.4,1-0.6,1.7-0.6c0.6,0,1.1,0.2,1.6,0.6s0.7,0.9,0.8,1.6c0,0.3,0,0.5,0,0.8c0,0.3,0,0.5,0,0.8C47.4,69.3,47.2,69.8,46.7,70.2z
	"/>
<path d="M61.9,68.8c0.1-0.1,0.2-0.3,0.2-0.4v-0.9c0-0.9-0.2-1.7-0.6-2.5s-1-1.4-1.7-1.9c-0.8-0.5-1.6-0.7-2.5-0.6
	c-1,0-1.9,0.2-2.6,0.7s-1.3,1.2-1.7,2s-0.6,1.7-0.6,2.7s0.2,2,0.6,2.8s1,1.4,1.7,1.9c0.8,0.5,1.6,0.7,2.6,0.7c0.9,0,1.7-0.2,2.4-0.5
	s1.2-0.7,1.6-1.1c0.3-0.5,0.5-0.8,0.5-1.1c0-0.1-0.1-0.2-0.2-0.3c-0.1-0.1-0.3-0.2-0.4-0.2h-1.6c-0.2,0-0.3,0.1-0.4,0.1
	c-0.1,0-0.3,0.1-0.4,0.2c-0.4,0.3-1,0.5-1.7,0.5c-0.6,0-1.1-0.1-1.6-0.5C55,70,54.8,69.6,54.8,69h6.7C61.7,69,61.8,68.9,61.9,68.8z
	 M59.4,66.7h-4.5c0.1-0.5,0.3-0.9,0.7-1.3c0.4-0.4,0.9-0.6,1.6-0.6c1.3,0,2.1,0.6,2.2,1.8V66.7z"/>
<path d="M69,58.9c-0.1,0.1-0.2,0.3-0.2,0.4v13.1c0,0.2,0.1,0.3,0.2,0.4c0.1,0.1,0.3,0.2,0.4,0.2h1.5c0.1,0,0.3-0.1,0.3-0.1
	c0.1-0.1,0.2-0.3,0.2-0.4V72c0.3,0.3,0.7,0.5,1.2,0.8s1.2,0.4,1.9,0.4c0.9,0,1.6-0.3,2.3-0.7c0.6-0.4,1.1-1,1.5-1.7
	c0.4-0.7,0.6-1.5,0.6-2.3c0-0.1,0-0.4,0-0.7s0-0.6,0-0.8c0-0.8-0.2-1.6-0.6-2.3C78,64,77.5,63.4,76.8,63s-1.4-0.6-2.3-0.6
	c-0.7,0-1.3,0.2-1.8,0.4s-0.9,0.5-1.2,0.8v-4.3c0-0.2-0.1-0.3-0.2-0.4c-0.1-0.1-0.3-0.2-0.4-0.2h-1.5C69.2,58.7,69.1,58.8,69,58.9z
	 M71.4,67.8c0-0.4,0-0.7,0-0.8c0.1-0.6,0.4-1.2,0.8-1.6c0.5-0.4,1-0.6,1.7-0.5c0.7,0,1.3,0.2,1.8,0.7s0.7,1.3,0.7,2.3
	c0,0.1,0,0.3,0,0.6c-0.1,0.8-0.4,1.4-0.8,1.8c-0.5,0.4-1,0.6-1.7,0.6c-0.7,0-1.3-0.2-1.7-0.6c-0.5-0.4-0.7-1-0.8-1.7
	C71.4,68.4,71.4,68.2,71.4,67.8z"/>
<path d="M82.4,76C82.4,76,82.4,76,82.4,76c0,0.3,0.1,0.4,0.2,0.5c0.1,0.1,0.3,0.2,0.4,0.2h1.5c0.1,0,0.3,0,0.4-0.1
	c0.1-0.1,0.2-0.2,0.2-0.3l5.6-13c0,0,0,0,0-0.1c0-0.2-0.1-0.3-0.2-0.4s-0.3-0.2-0.4-0.2h-1.5c-0.1,0-0.3,0.1-0.4,0.2
	C88.1,62.9,88,63,88,63.1l-2.7,6.2l-2.7-6.2c0-0.1-0.1-0.2-0.2-0.3c-0.1-0.1-0.3-0.2-0.4-0.2h-1.4c-0.2,0-0.3,0.1-0.4,0.2
	c-0.1,0.1-0.2,0.3-0.2,0.4v0.1l4,9L82.4,76z"/>
<polygon points="21.2,91.2 22,84 0,88.7 0,95.1 8,93.6 9.1,110 16.6,108.3 14.4,92.4 "/>
<polygon points="28,89.9 30.5,99.4 25.7,101.5 24.1,93.9 19,95.3 22.7,114 28,113.4 26.2,104.4 31.2,102 33.2,110 39,108.4 32.8,88 
	"/>
<polygon points="35,83.8 40.6,104 45,103.3 40,83 "/>
<polygon points="54.8,85 56.7,99.8 50.1,85 46,85.6 46.9,111 50.1,110.2 50.1,93.9 57.6,108.5 60,108.5 59.1,85 "/>
<polygon points="79.4,85.6 76.8,81.1 68.4,87.6 69.3,80.6 63.5,80 62,104.5 66.2,105 67.5,94.3 72.8,105 80,103.1 70,91.8 "/>
<path d="M88.5,86c-3.6,0-9,3.6-8.4,11.2c0.5,6.2,3.4,10.7,9,10.7c5.9,0,10.9-4.5,10.9-10.7C99.9,88.5,92.1,86,88.5,86z M89.5,103
	c-3.1,0-4.7-2.5-5-5.9c-0.3-4.2,2.7-6.2,4.7-6.2s6.3,1.4,6.3,6.2C95.5,100.5,92.7,103,89.5,103z"/>
<path d="M37.2,30.4L33,37.9c3.3,5.1,8.8,8.5,14.8,9.1H48l3.7-6.6c7.4,2.3,14.2-0.6,14.2-0.6l0.2-6.1c0,0-4.7,0.2-6.1-4
	c2.9,2.1,7.8,1.2,7.8,1.2l-2-4.6l4.2-0.9l-4.9-7.9c0.1-8.4-6.1-15.8-14.6-17C41.2-0.7,32.6,5.7,31.3,15
	C30.5,21.1,32.9,26.8,37.2,30.4z M60.6,19.3c1.5,0.2,2.5,1.6,2.3,3.1c-0.2,1.5-1.6,2.5-3.1,2.3s-2.5-1.6-2.3-3.1
	C57.8,20.1,59.1,19.1,60.6,19.3z M34.7,16.2c0.8-4.4,3.1-8.1,6.8-10.3c3.7-2.2,8-2.2,12.3-0.7c6.2,2.2,7.4,12,1.6,13
	c-4.1,0.7-7.6,2.7-10.2,5.9C41.4,28.6,33.5,22.7,34.7,16.2z"/>
</svg>
